<svg width="1173" height="323" viewBox="0 0 1173 323" fill="none" xmlns="http://www.w3.org/2000/svg">
<path d="M481.965 144.71C441.173 144.71 407.143 144.71 407.143 144.71C386.641 144.71 373.114 128.353 373.114 112.198C373.114 94.0234 388.755 79.6857 407.143 79.6857H492.745C497.606 79.6857 502.467 80.6954 506.695 82.5128C510.922 84.3303 514.726 86.9555 517.897 90.3885L534.594 64.9441C523.392 55.6548 508.808 50.0005 492.956 50.0005H406.509C371.212 50.0005 342.256 78.0702 342.256 112.198C342.256 142.691 367.619 174.799 410.103 174.799C454.7 174.799 478.795 174.799 478.795 174.799C498.663 174.799 517.897 189.945 517.897 212.158C517.897 234.372 497.183 249.517 477.738 249.517C463.788 249.517 396.153 249.517 396.153 249.517C384.528 249.517 372.692 244.065 365.083 234.776L364.871 235.179L348.174 260.624C360.01 271.731 376.496 279 396.364 279H477.949C521.067 279 548.755 244.873 548.755 212.36C548.544 172.78 512.19 144.71 481.965 144.71Z" fill="white"/>
<path d="M601.901 126.502H634.225V80.8837H769.014V50.0005H601.901V126.502Z" fill="white"/>
<path d="M125.294 175.021C165.918 172.57 187.513 146.83 187.513 111.694C187.513 77.3743 158.435 50.0005 122.942 50.0005H0V127.423H32.7133V81.0513H121.873C139.619 81.0513 154.8 95.5553 154.8 113.941C154.8 130.283 143.896 142.336 122.942 143.562C122.942 143.562 117.383 143.562 106.051 143.562H99.2089C96.857 143.562 94.2912 143.562 91.9393 143.766C62.647 144.992 39.9829 153.98 23.7332 170.323C3.84862 190.546 0.641437 216.082 0 227.521C0 230.177 0 232.016 0 232.833V278.796H12.4011H32.9271V230.177C32.9271 225.07 33.9962 205.255 48.1078 191.159C58.1569 181.149 73.3376 175.634 93.0083 174.612C94.9327 200.965 112.893 275.119 198.418 278.796C200.556 279 202.694 279 205.046 279V247.95C153.303 247.95 130.212 210.975 125.294 175.021Z" fill="white"/>
<path d="M634.227 231.159C634.227 226.113 635.283 206.533 649.016 192.606C660.002 181.706 676.903 176.054 699.509 176.054H718.734V145.171H699.509C667.607 145.171 642.466 154.052 625.354 171.613C601.48 196.037 601.692 228.535 601.903 233.581V278.998H613.945H769.016V248.316H634.227V231.159V231.159Z" fill="white"/>
<path d="M289.353 50.0005H255.844V279H289.353V50.0005Z" fill="white"/>
<path d="M848 0.017334H967.589V81.6191H848V0.017334Z" fill="url(#paint0_linear_3323_39)"/>
<path d="M919.753 250.45H1101.25V278.589V322.203H919.753V278.589V250.45Z" fill="url(#paint1_linear_3323_39)"/>
<path d="M947.892 63.329L947.892 278.589H919.753H876.139L876.139 63.329L947.892 63.329Z" fill="url(#paint2_linear_3323_39)"/>
<path d="M1144.86 63.329V278.589H1101.25H1073.11V63.329L1144.86 63.329Z" fill="url(#paint3_linear_3323_39)"/>
<path d="M1053.41 0.017334H1173V81.6191H1053.41V0.017334Z" fill="url(#paint4_linear_3323_39)"/>
<path d="M1101.25 278.589V322.203L1144.86 278.589H1101.25Z" fill="url(#paint5_linear_3323_39)"/>
<path d="M919.753 322.203V278.589H876.139L919.753 322.203Z" fill="url(#paint6_linear_3323_39)"/>
<defs>
<linearGradient id="paint0_linear_3323_39" x1="1191.99" y1="0.0173496" x2="866.994" y2="322.203" gradientUnits="userSpaceOnUse">
<stop stop-color="#800031"/>
<stop offset="1" stop-color="#FF0000"/>
</linearGradient>
<linearGradient id="paint1_linear_3323_39" x1="1191.99" y1="0.0173496" x2="866.994" y2="322.203" gradientUnits="userSpaceOnUse">
<stop stop-color="#800031"/>
<stop offset="1" stop-color="#FF0000"/>
</linearGradient>
<linearGradient id="paint2_linear_3323_39" x1="1191.99" y1="0.0173496" x2="866.994" y2="322.203" gradientUnits="userSpaceOnUse">
<stop stop-color="#800031"/>
<stop offset="1" stop-color="#FF0000"/>
</linearGradient>
<linearGradient id="paint3_linear_3323_39" x1="1191.99" y1="0.0173496" x2="866.994" y2="322.203" gradientUnits="userSpaceOnUse">
<stop stop-color="#800031"/>
<stop offset="1" stop-color="#FF0000"/>
</linearGradient>
<linearGradient id="paint4_linear_3323_39" x1="1191.99" y1="0.0173496" x2="866.994" y2="322.203" gradientUnits="userSpaceOnUse">
<stop stop-color="#800031"/>
<stop offset="1" stop-color="#FF0000"/>
</linearGradient>
<linearGradient id="paint5_linear_3323_39" x1="1191.99" y1="0.0173496" x2="866.994" y2="322.203" gradientUnits="userSpaceOnUse">
<stop stop-color="#800031"/>
<stop offset="1" stop-color="#FF0000"/>
</linearGradient>
<linearGradient id="paint6_linear_3323_39" x1="1191.99" y1="0.0173496" x2="866.994" y2="322.203" gradientUnits="userSpaceOnUse">
<stop stop-color="#800031"/>
<stop offset="1" stop-color="#FF0000"/>
</linearGradient>
</defs>
</svg>
